<svg width="1000" height="1000" viewBox="0 0 1000 1000" fill="none" xmlns="http://www.w3.org/2000/svg">
<path d="M475.532 93.617C453.191 118.085 457.447 134.574 478.723 151.596C489.362 160.106 489.362 121.633 489.362 235.106V287.234H345.745H202.128V553.191V819.149H500H797.872V553.191V287.234H664.894H531.915V235.106C530.585 107.713 531.915 160.106 542.553 151.596C563.83 133.511 568.085 113.83 544.681 92.5531C519.149 69.1488 496.809 70.2127 475.532 93.617ZM744.681 553.191V765.957H500H255.319V553.191V340.425H500H744.681V553.191Z" fill="#FD4685"/>
<path d="M104.255 214.894C68.0851 231.915 57.4468 270.213 57.4468 385.106C57.4468 488.298 56.383 494.681 28.7234 523.404L0 553.191L27.6596 581.915C54.2553 609.574 56.383 619.149 59.5745 737.234C62.766 855.319 64.8936 864.894 88.2979 884.043C105.319 897.872 128.723 901.596 163.83 901.596C211.702 901.596 211.702 901.596 211.702 881.649C211.702 861.702 211.702 861.702 192.553 861.702C143.617 861.702 131.915 832.979 131.915 712.766C131.915 613.83 129.787 600 108.511 577.66L85.1064 553.191L108.511 536.17C129.787 521.277 131.915 511.702 131.915 400C131.915 296.808 135.106 277.66 151.064 262.766C161.702 252.128 180.851 244.681 193.617 244.681C217.021 244.681 217.021 244.681 217.021 223.404C217.021 203.191 217.021 203.191 172.34 203.191C146.809 203.191 115.957 208.511 104.255 214.894Z" fill="#415071"/>
<path d="M894.681 889.894C930.851 872.872 941.489 834.574 941.489 719.681C941.489 616.489 942.553 610.106 970.213 581.383L998.936 551.596L971.277 522.872C944.681 495.213 942.553 485.638 939.362 367.553C936.17 249.468 934.043 239.894 910.638 220.745C893.617 206.915 870.213 203.191 835.106 203.191C787.234 203.191 787.234 203.191 787.234 223.138C787.234 243.085 787.234 243.085 806.383 243.085C855.319 243.085 867.021 271.808 867.021 392.021C867.021 490.957 869.149 504.787 890.425 527.128L913.83 551.596L890.425 568.617C869.149 583.511 867.021 593.085 867.021 704.787C867.021 807.979 863.83 827.128 847.872 842.021C837.234 852.66 818.085 860.106 805.319 860.106C781.915 860.106 781.915 860.106 781.915 881.383C781.915 901.596 781.915 901.596 826.596 901.596C852.128 901.596 882.979 896.277 894.681 889.894Z" fill="#415071"/>
<path d="M319.149 650.266H406.915V690.16H319.149V650.266Z" fill="#FD4685"/>
<path d="M458.777 650.266H546.543V690.16H458.777V650.266Z" fill="#FD4685"/>
<path d="M594.415 650.266H682.181V690.16H594.415V650.266Z" fill="#FD4685"/>
<circle cx="382.979" cy="478.723" r="55.8511" fill="#FD4685"/>
<circle cx="614.362" cy="478.723" r="55.8511" fill="#FD4685"/>
<circle cx="510.638" cy="127.66" r="55.8511" fill="#FD4685"/>
</svg>
